<?xml version="1.0" encoding="UTF-8"?>
<svg width="1440" height="900" viewBox="0 0 1440 900" fill="none" xmlns="http://www.w3.org/2000/svg">
  <rect width="1440" height="900" fill="#FBF7F2"/>
  <!-- Soft organic shapes in sage and cream tones -->
  <g opacity="0.12">
    <path d="M-120 220C60 120 280 120 420 220C560 320 720 320 900 200C1080 80 1280 100 1540 240V520H-120V220Z" fill="#5B8C6E"/>
    <path d="M-60 620C100 520 320 500 520 600C720 700 920 700 1140 600C1360 500 1500 520 1560 560V860H-60V620Z" fill="#C4856C"/>
    <circle cx="1180" cy="180" r="140" fill="#D4A060"/>
    <circle cx="220" cy="760" r="180" fill="#7BAE7F"/>
  </g>
  <g opacity="0.08">
    <path d="M980 120C1040 40 1140 20 1220 60C1300 100 1340 180 1320 260C1300 340 1210 380 1120 360C1030 340 960 280 940 220C920 160 940 140 980 120Z" fill="#5B8C6E"/>
    <path d="M320 140C380 80 480 70 560 110C640 150 680 230 660 300C640 370 550 410 460 390C370 370 300 310 280 250C260 190 280 160 320 140Z" fill="#7BAE7F"/>
  </g>
</svg>
